# Blender v2.77 (sub 0) OBJ File: ''
# www.blender.org
mtllib cylinder05x1.mtl
o Cylinder
v 0.207867 0.500000 0.138892
v 0.207867 0.500000 -0.138893
v 0.095671 0.500000 -0.230970
v 0.048773 -0.500000 0.245196
v -0.245196 -0.500000 0.048772
v -0.048772 -0.500000 -0.245196
v 0.048773 0.500000 -0.245196
v 0.000000 0.500000 -0.250000
v -0.048772 0.500000 -0.245196
v -0.095671 0.500000 -0.230970
v -0.138892 0.500000 -0.207868
v -0.176776 0.500000 -0.176777
v -0.207867 0.500000 -0.138893
v -0.230970 0.500000 -0.095671
v -0.245196 0.500000 -0.048773
v -0.250000 0.500000 0.000000
v -0.245196 0.500000 0.048772
v -0.230970 0.500000 0.095671
v -0.207868 0.500000 0.138892
v -0.176777 0.500000 0.176777
v -0.138893 0.500000 0.207867
v -0.095671 0.500000 0.230970
v -0.048773 0.500000 0.245196
v 0.000000 0.500000 0.250000
v 0.048773 0.500000 0.245196
v 0.095671 0.500000 0.230970
v 0.138893 0.500000 0.207867
v 0.176777 0.500000 0.176777
v 0.230970 0.500000 0.095671
v 0.245196 0.500000 0.048772
v 0.250000 0.500000 0.000000
v 0.245196 0.500000 -0.048773
v 0.230970 0.500000 -0.095671
v 0.176777 0.500000 -0.176777
v 0.138893 0.500000 -0.207867
v 0.000000 -0.500000 -0.250000
v 0.048773 -0.500000 -0.245196
v 0.095671 -0.500000 -0.230970
v 0.138893 -0.500000 -0.207867
v 0.176777 -0.500000 -0.176777
v 0.207867 -0.500000 -0.138893
v 0.230970 -0.500000 -0.095671
v 0.245196 -0.500000 -0.048773
v 0.250000 -0.500000 0.000000
v 0.245196 -0.500000 0.048772
v 0.230970 -0.500000 0.095671
v 0.207867 -0.500000 0.138892
v 0.176777 -0.500000 0.176777
v 0.138893 -0.500000 0.207867
v 0.095671 -0.500000 0.230970
v 0.000000 -0.500000 0.250000
v -0.048773 -0.500000 0.245196
v -0.095671 -0.500000 0.230970
v -0.138893 -0.500000 0.207867
v -0.176777 -0.500000 0.176777
v -0.207868 -0.500000 0.138892
v -0.230970 -0.500000 0.095671
v -0.250000 -0.500000 0.000000
v -0.245196 -0.500000 -0.048773
v -0.230970 -0.500000 -0.095671
v -0.207867 -0.500000 -0.138893
v -0.176776 -0.500000 -0.176777
v -0.138892 -0.500000 -0.207868
v -0.095671 -0.500000 -0.230970
vt 0.8960 0.6936
vt 0.8387 0.8825
vt 0.7434 0.9220
vt 0.5098 0.6325
vt 0.4852 0.8825
vt 0.2352 0.8579
vt 0.7086 0.9220
vt 0.6745 0.9152
vt 0.6423 0.9019
vt 0.6133 0.8825
vt 0.5887 0.8579
vt 0.5694 0.8289
vt 0.5560 0.7968
vt 0.5492 0.7626
vt 0.5492 0.7278
vt 0.5560 0.6936
vt 0.5694 0.6615
vt 0.5887 0.6325
vt 0.6133 0.6079
vt 0.6423 0.5885
vt 0.6745 0.5752
vt 0.7086 0.5684
vt 0.7434 0.5684
vt 0.7776 0.5752
vt 0.8098 0.5885
vt 0.8387 0.6079
vt 0.8633 0.6325
vt 0.8827 0.6615
vt 0.9028 0.7278
vt 0.9028 0.7626
vt 0.8960 0.7968
vt 0.8827 0.8289
vt 0.8633 0.8579
vt 0.8098 0.9019
vt 0.7776 0.9152
vt 0.2158 0.8289
vt 0.2025 0.7968
vt 0.1957 0.7626
vt 0.1957 0.7278
vt 0.2025 0.6936
vt 0.2158 0.6615
vt 0.2352 0.6325
vt 0.2598 0.6079
vt 0.2887 0.5885
vt 0.3209 0.5752
vt 0.3551 0.5684
vt 0.3899 0.5684
vt 0.4240 0.5752
vt 0.4562 0.5885
vt 0.4852 0.6079
vt 0.5291 0.6615
vt 0.5425 0.6936
vt 0.5492 0.7278
vt 0.5492 0.7626
vt 0.5425 0.7968
vt 0.5291 0.8289
vt 0.5098 0.8579
vt 0.4562 0.9019
vt 0.4240 0.9152
vt 0.3899 0.9220
vt 0.3551 0.9220
vt 0.3209 0.9152
vt 0.2887 0.9019
vt 0.2598 0.8825
vt 0.1547 0.0000
vt 0.1889 0.5684
vt 0.1547 0.5684
vt 0.1889 0.0000
vt 0.2210 0.5684
vt 0.2210 0.0000
vt 0.2500 0.5684
vt 0.2500 0.0000
vt 0.2746 0.5684
vt 0.5492 0.5684
vt 0.5246 0.0000
vt 0.5492 0.0000
vt 0.5246 0.5684
vt 0.4957 0.0000
vt 0.4957 0.5684
vt 0.4635 0.0000
vt 0.4293 0.5684
vt 0.4293 0.0000
vt 0.3945 0.0000
vt 0.3945 0.5684
vt 0.3604 0.0000
vt 0.3604 0.5684
vt 0.3282 0.0000
vt 0.3282 0.5684
vt 0.2992 0.0000
vt 0.2992 0.5684
vt 0.2746 0.0000
vt 0.7746 0.0000
vt 0.8036 0.5684
vt 0.7746 0.5684
vt 0.8036 0.0000
vt 0.8357 0.5684
vt 0.8357 0.0000
vt 0.8699 0.5684
vt 0.8699 0.0000
vt 0.9047 0.5684
vt 0.9047 0.0000
vt 0.9389 0.5684
vt 0.9389 0.0000
vt 0.9710 0.5684
vt 0.9710 0.0000
vt 1.0000 0.5684
vt 0.7746 0.5684
vt 0.7457 0.0000
vt 0.7746 0.0000
vt 0.7135 0.5684
vt 0.7135 0.0000
vt 0.6793 0.0000
vt 0.6793 0.5684
vt 0.6445 0.0000
vt 0.6445 0.5684
vt 0.6104 0.0000
vt 0.6104 0.5684
vt 0.5782 0.0000
vt 0.5782 0.5684
vt 0.5492 0.0000
vt 0.0000 0.0000
vt 0.0246 0.5684
vt 0.0000 0.5684
vt 0.0246 0.0000
vt 0.0536 0.5684
vt 0.0536 0.0000
vt 0.0857 0.5684
vt 0.0857 0.0000
vt 0.1199 0.5684
vt 0.2746 0.0000
vt 0.4635 0.5684
vt 0.2746 0.5684
vt 1.0000 0.0000
vt 0.7457 0.5684
vt 0.5492 0.5684
vt 0.1199 0.0000
vn 0.0000 1.0000 0.0000
vn -0.0000 -1.0000 0.0000
vn 0.0000 0.6775 -0.7355
vn 0.1430 -0.6806 -0.7186
vn 0.0000 -0.6857 -0.7279
vn 0.1433 0.6806 -0.7185
vn 0.2803 -0.6806 -0.6769
vn 0.2803 0.6806 -0.6769
vn 0.4072 -0.6806 -0.6091
vn 0.4072 0.6806 -0.6091
vn 0.5181 -0.6806 -0.5180
vn 0.5180 0.6806 -0.5181
vn 0.6092 -0.6806 -0.4071
vn 0.6095 0.6806 -0.4066
vn 0.6769 -0.6806 -0.2803
vn 0.6769 0.6806 -0.2803
vn 0.7214 -0.6775 -0.1435
vn 0.7355 0.6775 -0.0000
vn 0.7279 -0.6857 -0.0000
vn 0.7187 -0.6806 0.1426
vn 0.7186 0.6806 0.1428
vn 0.6770 -0.6806 0.2800
vn 0.6768 0.6806 0.2805
vn 0.6092 -0.6806 0.4071
vn 0.6092 0.6806 0.4071
vn 0.5181 -0.6806 0.5181
vn 0.5181 0.6806 0.5181
vn 0.4072 -0.6806 0.6091
vn 0.4069 0.6806 0.6093
vn 0.2803 -0.6806 0.6769
vn 0.2803 0.6806 0.6769
vn 0.1433 -0.6806 0.7185
vn 0.1431 0.6806 0.7186
vn 0.0000 -0.6806 0.7327
vn 0.0004 0.6806 0.7327
vn -0.1427 -0.6806 0.7186
vn -0.1429 0.6806 0.7186
vn -0.2803 -0.6806 0.6769
vn -0.2803 0.6806 0.6769
vn -0.4071 -0.6806 0.6091
vn -0.4074 0.6806 0.6090
vn -0.5181 -0.6806 0.5180
vn -0.5181 0.6806 0.5180
vn -0.6112 -0.6775 0.4092
vn -0.6796 0.6775 0.2813
vn -0.6724 -0.6857 0.2786
vn -0.7185 -0.6806 0.1432
vn -0.7186 0.6806 0.1427
vn -0.7327 -0.6806 -0.0000
vn -0.7327 0.6806 -0.0000
vn -0.7186 -0.6806 -0.1430
vn -0.7185 0.6806 -0.1433
vn -0.6769 -0.6806 -0.2803
vn -0.6769 0.6806 -0.2803
vn -0.6091 -0.6806 -0.4072
vn -0.6092 0.6806 -0.4071
vn -0.5182 -0.6806 -0.5180
vn -0.5176 0.6806 -0.5185
vn -0.4071 -0.6806 -0.6092
vn -0.4071 0.6806 -0.6092
vn -0.2803 -0.6806 -0.6769
vn -0.2802 0.6806 -0.6770
vn -0.1434 -0.6775 -0.7214
vn 0.7140 0.6857 -0.1416
vn -0.6052 0.6857 0.4044
vn -0.1419 0.6857 -0.7139
usemtl None
s off
f 1/1/1 2/2/1 3/3/1
f 4/4/2 5/5/2 6/6/2
f 3/3/1 7/7/1 8/8/1
f 8/8/1 9/9/1 3/3/1
f 10/10/1 11/11/1 12/12/1
f 12/12/1 13/13/1 14/14/1
f 14/14/1 15/15/1 16/16/1
f 16/16/1 17/17/1 14/14/1
f 18/18/1 19/19/1 20/20/1
f 20/20/1 21/21/1 18/18/1
f 22/22/1 23/23/1 24/24/1
f 24/24/1 25/25/1 22/22/1
f 26/26/1 27/27/1 1/1/1
f 28/28/1 1/1/1 27/27/1
f 29/29/1 30/30/1 1/1/1
f 31/31/1 32/32/1 33/33/1
f 33/33/1 2/2/1 1/1/1
f 34/34/1 35/35/1 2/2/1
f 3/3/1 9/9/1 1/1/1
f 10/10/1 12/12/1 9/9/1
f 14/14/1 17/17/1 12/12/1
f 18/18/1 21/21/1 22/22/1
f 22/22/1 25/25/1 1/1/1
f 26/26/1 1/1/1 25/25/1
f 30/30/1 31/31/1 33/33/1
f 2/2/1 35/35/1 3/3/1
f 9/9/1 12/12/1 17/17/1
f 17/17/1 18/18/1 22/22/1
f 22/22/1 1/1/1 17/17/1
f 30/30/1 33/33/1 1/1/1
f 9/9/1 17/17/1 1/1/1
f 6/6/2 36/36/2 37/37/2
f 37/37/2 38/38/2 39/39/2
f 39/39/2 40/40/2 41/41/2
f 41/41/2 42/42/2 43/43/2
f 43/43/2 44/44/2 45/45/2
f 45/45/2 46/46/2 47/47/2
f 47/47/2 48/48/2 49/49/2
f 49/49/2 50/50/2 4/4/2
f 4/4/2 51/51/2 52/52/2
f 52/52/2 53/53/2 54/54/2
f 54/54/2 55/55/2 56/56/2
f 56/56/2 57/57/2 5/5/2
f 5/5/2 58/58/2 59/59/2
f 59/59/2 60/60/2 61/61/2
f 61/61/2 62/62/2 6/6/2
f 63/63/2 64/64/2 6/6/2
f 6/6/2 37/37/2 39/39/2
f 39/39/2 41/41/2 43/43/2
f 43/43/2 45/45/2 47/47/2
f 47/47/2 49/49/2 4/4/2
f 4/4/2 52/52/2 5/5/2
f 54/54/2 56/56/2 5/5/2
f 5/5/2 59/59/2 6/6/2
f 62/62/2 63/63/2 6/6/2
f 6/6/2 39/39/2 43/43/2
f 43/43/2 47/47/2 6/6/2
f 52/52/2 54/54/2 5/5/2
f 59/59/2 61/61/2 6/6/2
f 6/6/2 47/47/2 4/4/2
s 1
f 8/65/3 37/66/4 36/67/5
f 7/68/6 38/69/7 37/66/4
f 3/70/8 39/71/9 38/69/7
f 35/72/10 40/73/11 39/71/9
f 34/74/12 41/75/13 40/76/11
f 2/77/14 42/78/15 41/75/13
f 33/79/16 43/80/17 42/78/15
f 43/80/17 31/81/18 44/82/19
f 31/81/18 45/83/20 44/82/19
f 30/84/21 46/85/22 45/83/20
f 29/86/23 47/87/24 46/85/22
f 1/88/25 48/89/26 47/87/24
f 28/90/27 49/91/28 48/89/26
f 27/92/29 50/93/30 49/94/28
f 26/95/31 4/96/32 50/93/30
f 25/97/33 51/98/34 4/96/32
f 24/99/35 52/100/36 51/98/34
f 23/101/37 53/102/38 52/100/36
f 22/103/39 54/104/40 53/102/38
f 21/105/41 55/106/42 54/104/40
f 20/107/43 56/108/44 55/109/42
f 56/108/44 18/110/45 57/111/46
f 18/110/45 5/112/47 57/111/46
f 17/113/48 58/114/49 5/112/47
f 16/115/50 59/116/51 58/114/49
f 15/117/52 60/118/53 59/116/51
f 14/119/54 61/120/55 60/118/53
f 13/121/56 62/122/57 61/123/55
f 12/124/58 63/125/59 62/122/57
f 11/126/60 64/127/61 63/125/59
f 10/128/62 6/129/63 64/127/61
f 6/129/63 8/65/3 36/67/5
f 8/65/3 7/68/6 37/66/4
f 7/68/6 3/70/8 38/69/7
f 3/70/8 35/72/10 39/71/9
f 35/72/10 34/130/12 40/73/11
f 34/74/12 2/77/14 41/75/13
f 2/77/14 33/79/16 42/78/15
f 33/79/16 32/131/64 43/80/17
f 43/80/17 32/131/64 31/81/18
f 31/81/18 30/84/21 45/83/20
f 30/84/21 29/86/23 46/85/22
f 29/86/23 1/88/25 47/87/24
f 1/88/25 28/90/27 48/89/26
f 28/90/27 27/132/29 49/91/28
f 27/92/29 26/95/31 50/93/30
f 26/95/31 25/97/33 4/96/32
f 25/97/33 24/99/35 51/98/34
f 24/99/35 23/101/37 52/100/36
f 23/101/37 22/103/39 53/102/38
f 22/103/39 21/105/41 54/104/40
f 21/105/41 20/133/43 55/106/42
f 20/107/43 19/134/65 56/108/44
f 56/108/44 19/134/65 18/110/45
f 18/110/45 17/113/48 5/112/47
f 17/113/48 16/115/50 58/114/49
f 16/115/50 15/117/52 59/116/51
f 15/117/52 14/119/54 60/118/53
f 14/119/54 13/135/56 61/120/55
f 13/121/56 12/124/58 62/122/57
f 12/124/58 11/126/60 63/125/59
f 11/126/60 10/128/62 64/127/61
f 10/128/62 9/136/66 6/129/63
f 6/129/63 9/136/66 8/65/3
