# Blender v2.77 (sub 0) OBJ File: ''
# www.blender.org
mtllib plate05x1x005.mtl
o Cube.001
v 0.250000 -0.025000 -0.500000
v 0.250000 -0.025000 0.500000
v -0.250000 -0.025000 0.500000
v -0.250000 -0.025000 -0.500000
v 0.250000 0.025000 -0.500000
v -0.250000 0.025000 -0.500000
v -0.250000 0.025000 0.500000
v 0.250000 0.025000 0.500000
vt 0.4348 0.0000
vt 0.8696 0.8696
vt 0.4348 0.8696
vt 0.0000 0.8696
vt 0.4348 0.0000
vt 0.4348 0.8696
vt 0.9565 0.0000
vt 0.9130 0.8696
vt 0.9130 0.0000
vt 1.0000 0.4348
vt 0.9565 0.8696
vt 0.9565 0.4348
vt 0.9130 0.0000
vt 0.8696 0.0000
vt 1.0000 0.0000
vt 0.9565 0.4348
vt 0.0000 0.0000
vt 0.9565 0.8696
vt 1.0000 0.8696
vt 0.9130 0.8696
vt 1.0000 0.4348
vn 0.0000 -1.0000 -0.0000
vn 0.0000 1.0000 0.0000
vn 1.0000 0.0000 0.0000
vn 0.0000 0.0000 1.0000
vn -1.0000 0.0000 0.0000
vn 0.0000 0.0000 -1.0000
usemtl Material.001
s 1
f 2/1/1 4/2/1 1/3/1
f 6/4/2 8/5/2 5/6/2
f 5/7/3 2/8/3 1/9/3
f 8/10/4 3/11/4 2/12/4
f 7/13/5 4/2/5 3/14/5
f 1/15/6 6/16/6 5/7/6
f 2/1/1 3/14/1 4/2/1
f 6/4/2 7/17/2 8/5/2
f 5/7/3 8/18/3 2/8/3
f 8/10/4 7/19/4 3/11/4
f 7/13/5 6/20/5 4/2/5
f 1/15/6 4/21/6 6/16/6
